<svg xmlns="http://www.w3.org/2000/svg" xmlns:xlink="http://www.w3.org/1999/xlink"><symbol viewBox="0 0 300 175" id="arrow-down" xmlns="http://www.w3.org/2000/svg"><path d="M143.3 169.7L7.9 33.6C6.2 31.8 5 29.2 5 26.9s1.2-5 2.9-6.7L22.4 5.5c1.7-1.8 4.1-2.9 6.7-2.9 2.3 0 4.9 1.2 6.7 2.9L150 120.2 264.2 5.5c1.7-1.8 4.4-2.9 6.7-2.9s4.9 1.2 6.7 2.9l14.5 14.6c1.7 1.8 2.9 4.4 2.9 6.7s-1.2 5-2.9 6.7L156.7 169.6c-1.7 1.8-4.4 2.9-6.7 2.9s-4.9-1.1-6.7-2.8z"/></symbol><symbol viewBox="0 0 175 300" id="arrow-left" xmlns="http://www.w3.org/2000/svg"><path d="M5.3 156.7c-1.7-1.8-2.8-4.4-2.8-6.7s1.1-5 2.9-6.7L141.5 7.9c1.7-1.7 4.4-2.9 6.7-2.9s4.9 1.2 6.7 2.9l14.6 14.5c1.7 1.8 2.9 4.4 2.9 6.7s-1.1 5-2.9 6.7L54.7 150l114.8 114.2c1.7 1.8 2.9 4.4 2.9 6.7 0 2.6-1.1 5-2.9 6.7l-14.7 14.5c-1.7 1.7-4.4 2.9-6.7 2.9s-4.9-1.2-6.7-2.9L5.3 156.7z"/></symbol><symbol viewBox="0 0 175 300" id="arrow-right" xmlns="http://www.w3.org/2000/svg"><path d="M169.6 156.7L33.5 292.1c-1.8 1.7-4.4 2.9-6.7 2.9s-5-1.2-6.7-2.9L5.4 277.6c-1.8-1.7-2.9-4.1-2.9-6.7 0-2.3 1.2-4.9 2.9-6.7L120.2 150 5.4 35.8c-1.8-1.7-2.9-4.4-2.9-6.7s1.2-4.9 2.9-6.7L20 7.9C21.8 6.2 24.4 5 26.7 5s5 1.2 6.7 2.9l136.1 135.4c1.8 1.7 2.9 4.4 2.9 6.7s-1.1 4.9-2.8 6.7z"/></symbol><symbol viewBox="0 0 300 175" id="arrow-up" xmlns="http://www.w3.org/2000/svg"><path d="M156.7 5.3l135.4 136.1c1.7 1.8 2.9 4.4 2.9 6.7s-1.2 5-2.9 6.7l-14.5 14.7c-1.7 1.8-4.1 2.9-6.7 2.9-2.3 0-4.9-1.2-6.7-2.9L150 54.8 35.8 169.6c-1.7 1.8-4.4 2.9-6.7 2.9s-4.9-1.2-6.7-2.9L7.9 154.9c-1.7-1.8-2.9-4.4-2.9-6.7s1.2-5 2.9-6.7L143.3 5.4c1.7-1.8 4.4-2.9 6.7-2.9s4.9 1.1 6.7 2.8z"/></symbol><symbol viewBox="0 0 257 300" id="bars" xmlns="http://www.w3.org/2000/svg"><path d="M257.143 225v21.429c0 5.859-4.855 10.714-10.714 10.714H10.715c-5.859 0-10.714-4.855-10.714-10.714V225c0-5.859 4.855-10.714 10.714-10.714h235.714c5.859 0 10.714 4.855 10.714 10.714zm0-85.714v21.429c0 5.859-4.855 10.714-10.714 10.714H10.715c-5.859 0-10.714-4.855-10.714-10.714v-21.429c0-5.859 4.855-10.714 10.714-10.714h235.714c5.859 0 10.714 4.855 10.714 10.714zm0-85.715V75c0 5.859-4.855 10.714-10.714 10.714H10.715C4.856 85.714.001 80.859.001 75V53.571c0-5.859 4.855-10.714 10.714-10.714h235.714c5.859 0 10.714 4.855 10.714 10.714z"/></symbol></svg>